HIERARCHY
ROOT hip
{
	OFFSET 0.000000 0.000000 0.000000
	CHANNELS 6 Xposition Yposition Zposition Zrotation Yrotation Xrotation 
	JOINT lhipjoint
	{
		OFFSET 0.000000 0.000000 0.000000
		CHANNELS 3 Zrotation Yrotation Xrotation
		JOINT lfemur
		{
			OFFSET 1.363060 -1.794630 0.839290
			CHANNELS 3 Zrotation Yrotation Xrotation
			JOINT ltibia
			{
				OFFSET 2.448110 -6.726130 0.000000
				CHANNELS 3 Zrotation Yrotation Xrotation
				JOINT lfoot
				{
					OFFSET 2.562200 -7.039590 0.000000
					CHANNELS 3 Zrotation Yrotation Xrotation
					JOINT ltoes
					{
						OFFSET 0.157640 -0.433110 2.322550
						CHANNELS 3 Zrotation Yrotation Xrotation
						End Site
						{
							OFFSET 0.000000 0.000000 0.000000
						}
					}
				}
			}
		}
	}
	JOINT rhipjoint
	{
		OFFSET 0.000000 0.000000 0.000000
		CHANNELS 3 Zrotation Yrotation Xrotation
		JOINT rfemur
		{
			OFFSET -1.305520 -1.794630 0.839290
			CHANNELS 3 Zrotation Yrotation Xrotation
			JOINT rtibia
			{
				OFFSET -2.542530 -6.985550 0.000000
				CHANNELS 3 Zrotation Yrotation Xrotation
				JOINT rfoot
				{
					OFFSET -2.568260 -7.056230 0.000000
					CHANNELS 3 Zrotation Yrotation Xrotation
					JOINT rtoes
					{
						OFFSET -0.164730 -0.452590 2.363150
						CHANNELS 3 Zrotation Yrotation Xrotation
						End Site
						{
							OFFSET 0.000000 0.000000 0.000000
						}
					}
				}
			}
		}
	}
	JOINT lowerback
	{
		OFFSET 0.000000 0.000000 0.000000
		CHANNELS 3 Zrotation Yrotation Xrotation
		JOINT upperback
		{
			OFFSET 0.028270 2.035590 -0.193380
			CHANNELS 3 Zrotation Yrotation Xrotation
			JOINT thorax
			{
				OFFSET 0.056720 2.048850 -0.042750
				CHANNELS 3 Zrotation Yrotation Xrotation
				JOINT lowerneck
				{
					OFFSET 0.000000 0.000000 0.000000
					CHANNELS 3 Zrotation Yrotation Xrotation
					JOINT upperneck
					{
						OFFSET -0.054170 1.746240 0.172020
						CHANNELS 3 Zrotation Yrotation Xrotation
						JOINT head
						{
							OFFSET 0.104070 1.761360 -0.123970
							CHANNELS 3 Zrotation Yrotation Xrotation
							End Site
							{
								OFFSET 0.000000 0.000000 0.000000
							}
						}
					}
				}
				JOINT lclavicle
				{
					OFFSET 0.000000 0.000000 0.000000
					CHANNELS 3 Zrotation Yrotation Xrotation
					JOINT lhumerus
					{
						OFFSET 3.362410 1.200890 -0.311210
						CHANNELS 3 Zrotation Yrotation Xrotation
						JOINT lradius
						{
							OFFSET 4.983000 -0.000000 -0.000000
							CHANNELS 3 Zrotation Yrotation Xrotation
							JOINT lwrist
							{
								OFFSET 3.483560 -0.000000 -0.000000
								CHANNELS 3 Zrotation Yrotation Xrotation
								JOINT lhand
								{
									OFFSET 0.000000 0.000000 0.000000
									CHANNELS 3 Zrotation Yrotation Xrotation
									JOINT lfingers
									{
										OFFSET 0.715260 -0.000000 -0.000000
										CHANNELS 3 Zrotation Yrotation Xrotation
										End Site
										{
											OFFSET 0.000000 0.000000 0.000000
										}
									}
								}
								JOINT lthumb
								{
									OFFSET 0.000000 0.000000 0.000000
									CHANNELS 3 Zrotation Yrotation Xrotation
									End Site
									{
										OFFSET 0.000000 0.000000 0.000000
									}
								}
							}
						}
					}
				}
				JOINT rclavicle
				{
					OFFSET 0.000000 0.000000 0.000000
					CHANNELS 3 Zrotation Yrotation Xrotation
					JOINT rhumerus
					{
						OFFSET -3.136600 1.374050 -0.404650
						CHANNELS 3 Zrotation Yrotation Xrotation
						JOINT rradius
						{
							OFFSET -5.241900 -0.000000 -0.000000
							CHANNELS 3 Zrotation Yrotation Xrotation
							JOINT rwrist
							{
								OFFSET -3.444170 -0.000000 -0.000000
								CHANNELS 3 Zrotation Yrotation Xrotation
								JOINT rhand
								{
									OFFSET 0.000000 0.000000 0.000000
									CHANNELS 3 Zrotation Yrotation Xrotation
									JOINT rfingers
									{
										OFFSET -0.622530 -0.000000 -0.000000
										CHANNELS 3 Zrotation Yrotation Xrotation
										End Site
										{
											OFFSET 0.000000 0.000000 0.000000
										}
									}
								}
								JOINT rthumb
								{
									OFFSET 0.000000 0.000000 0.000000
									CHANNELS 3 Zrotation Yrotation Xrotation
									End Site
									{
										OFFSET 0.000000 0.000000 0.000000
									}
								}
							}
						}
					}
				}
			}
		}
	}
}
MOTION
Frames: 12
Frame Time: 0.008333
-0.235638 18.634173 3.371667 -175.383195 2.753180 -174.641486 8.809165 2.000005 -1.049551 -23.832764 -8.458856 -26.814095 5.736953 15.585470 45.261442 1.394666 0.776072 4.942916 0.008500 0.595900 1.637400 -13.517035 -4.462317 -2.799206 33.492545 2.632759 -17.146682 -5.398280 -13.603109 40.623355 -4.356599 16.650453 0.506026 -1.004400 6.377300 -17.883300 12.750279 -0.942213 10.122538 1.007000 0.666650 -0.641635 -1.914124 2.561797 10.589415 -1.419168 -7.376159 -8.985347 2.801478 -9.355794 13.881620 1.084900 -4.479000 2.887800 -1.056318 -1.084655 3.872867 -72.070757 2.726721 38.119477 9.461392 -39.100941 -3.611950 0.436763 1.281019 32.177361 16.704572 -12.149316 -4.088500 -7.125000 0.000000 0.000000 -7.102000 15.957800 4.914100 0.616124 3.077397 5.464612 80.757028 -8.486030 15.402895 -22.366760 40.991076 -5.911866 0.486373 -3.729107 -1.357046 -8.213809 5.814476 -1.449700 7.125000 0.000000 0.000000 13.042000 -20.399300 7.882100 
-0.254047 18.639347 3.388384 -175.378040 2.972822 -174.466942 8.829912 1.983301 -1.034171 -23.665031 -9.156682 -26.689313 5.678169 15.588765 45.187064 1.652223 0.039079 5.129185 0.011000 0.678000 1.863100 -13.517886 -4.463330 -2.753790 33.428672 2.783080 -17.438508 -5.390985 -13.616794 40.610825 -4.357530 16.728693 0.619487 -1.057800 6.539500 -18.358000 12.702614 -0.897097 10.155913 0.998698 0.720185 -0.647531 -1.927849 2.586210 10.513716 -1.465370 -7.529696 -8.934213 2.871254 -9.588570 13.776295 1.183400 -4.604900 2.868900 -1.123285 -1.090499 3.869838 -71.726809 2.436389 38.525571 10.117605 -39.571866 -3.817088 0.482600 1.318224 31.678738 17.711938 -12.321190 -4.413900 -7.125000 0.000000 0.000000 -6.435700 15.621800 4.493800 0.611939 3.059851 5.468614 80.569784 -8.376587 15.451162 -22.232203 40.855346 -5.860123 0.504438 -3.708969 -1.273743 -8.096860 5.594992 -1.397900 7.125000 0.000000 0.000000 13.124600 -20.640000 7.861500 
-0.273750 18.644223 3.404604 -175.365501 3.236271 -174.312618 8.852953 1.965088 -1.024385 -23.505423 -9.797454 -26.528673 5.620638 15.584591 45.101117 1.883817 -0.633904 5.302092 0.014500 0.777500 2.136800 -13.518670 -4.460643 -2.702669 33.365056 3.001989 -17.690222 -5.383778 -13.632148 40.602885 -4.360309 16.815407 0.728653 -1.099600 6.663300 -18.721600 12.656723 -0.830242 10.206435 0.984666 0.796868 -0.654823 -1.988024 2.625512 10.410678 -1.499267 -7.684165 -8.851714 2.963883 -9.825920 13.671181 1.303400 -4.733300 2.851000 -1.213036 -1.107862 3.866086 -71.282052 2.217823 38.999452 10.890723 -40.111568 -4.062675 0.524490 1.363181 31.112111 18.795071 -12.398383 -4.742900 -7.125000 0.000000 0.000000 -5.715000 15.363100 4.017000 0.604339 3.052479 5.474656 80.409871 -8.307327 15.504195 -22.130278 40.757400 -5.822811 0.509886 -3.694546 -1.191576 -8.030133 5.494650 -1.371500 7.125000 0.000000 0.000000 13.172300 -20.756000 7.856100 
-0.294845 18.648004 3.419531 -175.349692 3.547917 -174.156523 8.873492 1.948782 -1.017125 -23.349099 -10.370692 -26.367439 5.563109 15.577086 45.010845 2.108740 -1.297387 5.490446 0.015100 0.794300 2.183000 -13.517692 -4.458198 -2.652017 33.296955 3.205421 -17.944929 -5.376861 -13.648123 40.598266 -4.366233 16.942097 0.855782 -1.147700 6.802600 -19.131900 12.583487 -0.753143 10.240604 0.970349 0.885016 -0.661420 -1.996102 2.666432 10.327166 -1.616421 -7.836312 -8.793930 3.069660 -10.061882 13.571130 1.458600 -4.864100 2.861600 -1.311915 -1.128990 3.859837 -70.850746 2.017840 39.462511 11.709531 -40.697382 -4.334788 0.565635 1.413506 30.515777 19.934876 -12.483846 -5.102300 -7.125000 0.000000 0.000000 -4.957400 15.076400 3.510700 0.599443 3.032292 5.480322 80.168553 -8.233643 15.647833 -22.058955 40.674292 -5.796312 0.519142 -3.678263 -1.206240 -7.979964 5.369716 -1.343900 7.125000 0.000000 0.000000 13.211900 -20.896500 7.837900 
-0.316041 18.651487 3.433959 -175.330412 3.893286 -174.020306 8.894296 1.934657 -1.015864 -23.204927 -10.839291 -26.193359 5.507509 15.563792 44.917235 2.330075 -1.966109 5.639619 0.008200 0.585700 1.609500 -13.516726 -4.452196 -2.595716 33.229168 3.466368 -18.167316 -5.369714 -13.664967 40.597092 -4.369664 17.043681 0.991117 -1.179300 6.892400 -19.397000 12.488670 -0.676841 10.288375 0.952735 0.967369 -0.670083 -2.031628 2.703384 10.222110 -1.715653 -7.978197 -8.720808 3.174795 -10.281877 13.483665 1.609200 -4.985700 2.879700 -1.422176 -1.157203 3.851022 -70.369364 1.873131 39.867088 12.585455 -41.311961 -4.638555 0.601952 1.466424 29.914456 21.085179 -12.534805 -5.464600 -7.125000 0.000000 0.000000 -4.191100 14.815500 2.988200 0.597468 3.022274 5.486272 79.911315 -8.189347 15.894056 -22.055527 40.644447 -5.786622 0.543795 -3.665138 -1.367240 -7.876982 5.138425 -1.294200 7.125000 0.000000 0.000000 13.292700 -21.138700 7.813500 
-0.338530 18.652980 3.446000 -175.321986 4.272148 -173.886058 8.915592 1.921546 -1.015186 -23.087233 -11.293732 -26.003861 5.454573 15.550298 44.825163 2.539916 -2.614101 5.743887 0.002300 0.306800 0.843000 -13.515195 -4.445419 -2.541513 33.141705 3.718631 -18.386412 -5.363011 -13.680544 40.593177 -4.375415 17.170375 1.118347 -1.228700 7.030100 -19.804700 12.348760 -0.594419 10.304122 0.935385 1.050653 -0.678016 -2.021179 2.734419 10.129917 -1.872794 -8.111338 -8.638072 3.294393 -10.489916 13.406742 1.788000 -5.103100 2.908700 -1.542522 -1.188774 3.841835 -69.881008 1.790092 40.318672 13.559569 -42.013373 -4.987947 0.632084 1.531932 29.198885 22.295405 -12.468965 -5.814400 -7.125000 0.000000 0.000000 -3.375800 14.652000 2.416400 0.598348 3.003517 5.494772 79.602634 -8.150330 16.159856 -22.060109 40.610820 -5.779716 0.572211 -3.647469 -1.566741 -7.764405 4.879403 -1.239500 7.125000 0.000000 0.000000 13.382200 -21.412100 7.783600 
-0.361417 18.651786 3.457145 -175.319210 4.648524 -173.744982 8.939426 1.905693 -1.019279 -22.971320 -11.769526 -25.799991 5.397428 15.536818 44.730048 2.768888 -3.333756 5.878018 0.001300 0.232600 0.639100 -13.517083 -4.433013 -2.485585 33.053743 4.041621 -18.584102 -5.351868 -13.695192 40.581930 -4.376108 17.265049 1.298962 -1.227200 7.026000 -19.792400 12.183726 -0.520327 10.275926 0.917781 1.117786 -0.679424 -2.004991 2.761119 10.103636 -2.020163 -8.247919 -8.605214 3.406146 -10.707020 13.318383 1.958700 -5.224400 2.934600 -1.668913 -1.196702 3.833706 -69.383520 1.662957 40.727798 14.577987 -42.747897 -5.369471 0.654429 1.602719 28.460889 23.507507 -12.312043 -6.136600 -7.125000 0.000000 0.000000 -2.549800 14.575600 1.827900 0.611456 2.961160 5.504495 79.251927 -8.042588 16.488882 -22.067838 40.587019 -5.773592 0.597626 -3.625492 -1.775405 -7.647432 4.653050 -1.188500 7.125000 0.000000 0.000000 13.475900 -21.657400 7.763800 
-0.383608 18.649696 3.465006 -175.303994 5.063557 -173.624020 8.963049 1.888603 -1.028019 -22.838493 -12.201331 -25.557601 5.333856 15.518370 44.630835 3.033816 -4.185463 6.112009 0.006800 0.532300 1.462700 -13.522509 -4.415236 -2.426101 32.985150 4.437065 -18.728760 -5.338394 -13.707728 40.561920 -4.374660 17.312129 1.449975 -1.221400 7.009800 -19.744500 11.994503 -0.417557 10.242960 0.897290 1.216998 -0.682756 -1.997745 2.798921 10.061840 -2.125712 -8.389162 -8.558123 3.527555 -10.931946 13.246493 2.118300 -5.346900 2.967000 -1.791144 -1.210867 3.823426 -68.850793 1.576329 41.170841 15.636829 -43.508174 -5.782208 0.668240 1.678155 27.688567 24.792629 -12.030445 -6.431300 -7.125000 0.000000 0.000000 -1.660800 14.615500 1.188500 0.625536 2.929095 5.513347 78.950334 -7.964878 16.755957 -22.082850 40.567983 -5.768768 0.618310 -3.603391 -1.935399 -7.519208 4.474543 -1.143200 7.125000 0.000000 0.000000 13.575700 -21.856400 7.761300 
-0.405699 18.646611 3.469086 -175.321447 5.508081 -173.502886 8.993954 1.867389 -1.043086 -22.761051 -12.626388 -25.287302 5.269135 15.496881 44.525885 3.281769 -5.002903 6.374153 0.023700 0.994800 2.734500 -13.524426 -4.394724 -2.363311 32.882015 4.883050 -18.857586 -5.325169 -13.720722 40.538789 -4.371555 17.330129 1.568092 -1.222600 7.013100 -19.754100 11.779960 -0.272274 10.166465 0.865673 1.352005 -0.681603 -2.097986 2.866631 10.071213 -2.089573 -8.555502 -8.567089 3.646235 -11.200431 13.176411 2.235000 -5.485200 3.000400 -1.924676 -1.202711 3.810995 -68.190209 1.435712 41.683270 16.722297 -44.255814 -6.215143 0.669649 1.746752 26.904145 26.079962 -11.654231 -6.676900 -7.125000 0.000000 0.000000 -0.756700 14.765100 0.538900 0.647580 2.894047 5.519390 78.764669 -7.889661 16.926123 -22.129130 40.604711 -5.778834 0.621752 -3.589064 -2.057012 -7.413349 4.474864 -1.125500 7.125000 0.000000 0.000000 13.655300 -21.872500 7.804200 
-0.425401 18.641636 3.471474 -175.325539 5.964715 -173.372730 9.021175 1.848840 -1.063723 -22.677433 -12.946300 -25.046727 5.204732 15.469954 44.410464 3.507544 -5.770436 6.632246 0.041700 1.317300 3.622400 -13.532982 -4.367163 -2.289414 32.803868 5.440296 -18.964666 -5.310441 -13.738574 40.523306 -4.363482 17.274741 1.693907 -1.187000 6.914100 -19.461100 11.513250 -0.120452 10.057856 0.836621 1.491501 -0.682652 -2.145680 2.923187 10.069641 -2.063543 -8.714995 -8.549254 3.771490 -11.458029 13.110241 2.349900 -5.617200 3.023700 -2.050726 -1.200340 3.797091 -67.514924 1.327675 42.209435 17.861073 -45.050061 -6.687330 0.663254 1.819083 26.017764 27.376361 -11.204738 -6.884100 -7.125000 0.000000 0.000000 0.165200 14.988800 -0.116900 0.673763 2.860622 5.527353 78.575810 -7.822189 17.103120 -22.170312 40.628732 -5.784699 0.613223 -3.570124 -2.132775 -7.322762 4.578405 -1.122000 7.125000 0.000000 0.000000 13.722300 -21.792400 7.870600 
-0.445801 18.635466 3.471673 -175.318122 6.411633 -173.290928 9.048681 1.831870 -1.092201 -22.639410 -13.153915 -24.763357 5.149700 15.434778 44.287731 3.677700 -6.368055 6.775822 0.044000 1.354100 3.723500 -13.541540 -4.337387 -2.223485 32.737179 5.990478 -19.005698 -5.301399 -13.759608 40.529268 -4.355202 17.184351 1.771957 -1.146500 6.799000 -19.121400 11.253516 0.009449 9.967195 0.806346 1.609289 -0.678567 -2.223799 2.978032 10.110439 -2.007095 -8.870400 -8.587917 3.886787 -11.714635 13.048340 2.447100 -5.746600 3.062200 -2.175468 -1.183844 3.782288 -66.859345 1.165303 42.593722 18.949784 -45.793329 -7.165264 0.647489 1.886848 25.244755 28.679560 -10.626108 -7.012800 -7.125000 0.000000 0.000000 1.114000 15.362400 -0.779200 0.702231 2.816126 5.532800 78.394855 -7.710528 17.303432 -22.210734 40.665695 -5.792273 0.602886 -3.554164 -2.197060 -7.249704 4.695407 -1.122900 7.125000 0.000000 0.000000 13.776200 -21.696100 7.934600 
-0.464608 18.627207 3.471076 -175.295001 6.884617 -173.219121 9.072077 1.819291 -1.127764 -22.617136 -13.218993 -24.492116 5.099864 15.391218 44.150899 3.805337 -6.829316 6.851613 0.037400 1.248900 3.433800 -13.554683 -4.303569 -2.149094 32.693578 6.613830 -19.029566 -5.300711 -13.793198 40.571111 -4.348376 17.038735 1.734967 -1.121700 6.727600 -18.910800 10.966015 0.145407 9.874527 0.778098 1.737945 -0.676076 -2.249783 3.028595 10.127565 -2.002414 -9.030789 -8.581969 3.998739 -11.972040 12.964577 2.558200 -5.878200 3.074700 -2.295153 -1.178732 3.769298 -66.215601 1.044628 42.924424 20.054511 -46.553538 -7.673816 0.627742 1.951790 24.515700 30.023355 -10.024197 -7.121500 -7.125000 0.000000 0.000000 2.100300 15.760200 -1.451900 0.731077 2.777391 5.542656 78.216244 -7.640467 17.473792 -22.285434 40.716779 -5.813180 0.588954 -3.539601 -2.242179 -7.211714 4.848048 -1.133300 7.125000 0.000000 0.000000 13.803700 -21.562500 7.994600 
